<!DOCTYPE svg PUBLIC "-//W3C//DTD SVG 1.1//EN" "http://www.w3.org/Graphics/SVG/1.1/DTD/svg11.dtd">

<!-- Uploaded to: SVG Repo, www.svgrepo.com, Transformed by: SVG Repo Mixer Tools -->
<svg width="110px" height="110px" viewBox="-225.28 -225.28 1474.56 1474.56" class="icon" version="1.1" xmlns="http://www.w3.org/2000/svg" fill="#850000" transform="rotate(45)" stroke="#850000">

<g id="SVGRepo_bgCarrier" stroke-width="0">

<rect x="-225.28" y="-225.28" width="1474.56" height="1474.56" rx="737.28" fill="#7ed0ec" strokewidth="0"/>

</g>

<g id="SVGRepo_tracerCarrier" stroke-linecap="round" stroke-linejoin="round"/>

<g id="SVGRepo_iconCarrier">

<path d="M508.3 1005c-20.3 0-36.8-16.6-36.8-36.8V721.3c0-20.3 16.6-36.8 36.8-36.8 20.3 0 36.8 16.6 36.8 36.8v246.9c0 20.2-16.6 36.8-36.8 36.8z" fill="#FAFCFC"/>

<path d="M508.3 1018c-27.5 0-49.8-22.3-49.8-49.8V721.3c0-27.5 22.3-49.8 49.8-49.8s49.8 22.3 49.8 49.8v246.9c0 27.5-22.3 49.8-49.8 49.8z m0-320.6c-13.1 0-23.8 10.7-23.8 23.8v246.9c0 13.1 10.7 23.8 23.8 23.8 13.1 0 23.8-10.7 23.8-23.8V721.3c0-13.2-10.7-23.9-23.8-23.9z" fill="#154B8B"/>

<path d="M742.2 784.1H274.4V210.9c0-104.6 84.8-189.4 189.4-189.4h88.9c104.6 0 189.4 84.8 189.4 189.4v573.2z" fill="#9BCFDD"/>

<path d="M742.2 797.1H274.4c-7.2 0-13-5.8-13-13V210.9c0-111.6 90.8-202.4 202.4-202.4h88.9c111.6 0 202.4 90.8 202.4 202.4v573.2c0.1 7.2-5.7 13-12.9 13z m-454.8-26h441.8V210.9c0-97.3-79.2-176.4-176.4-176.4h-88.9c-97.3 0-176.4 79.2-176.4 176.4v560.2z" fill="#154B8B"/>

<path d="M458.9 615.1c-7.2 0-13-5.8-13-13V225.3c0-7.2 5.8-13 13-13s13 5.8 13 13v376.9c0 7.1-5.9 12.9-13 12.9zM557.7 615.1c-7.2 0-13-5.8-13-13V225.3c0-7.2 5.8-13 13-13s13 5.8 13 13v376.9c0 7.1-5.8 12.9-13 12.9z" fill="#144884"/>

</g>

</svg>